<mxfile host="app.diagrams.net" agent="Mozilla/5.0 (Macintosh; Intel Mac OS X 10_15_7) AppleWebKit/537.36 (KHTML, like Gecko) Chrome/134.0.0.0 Safari/537.36" version="26.1.1">
  <diagram name="第 1 页" id="386Q1aQ_eGs3H4m2eRnu">
    <mxGraphModel dx="1050" dy="665" grid="1" gridSize="10" guides="1" tooltips="1" connect="1" arrows="1" fold="1" page="1" pageScale="1" pageWidth="827" pageHeight="1169" math="0" shadow="0">
      <root>
        <mxCell id="0" />
        <mxCell id="1" parent="0" />
        <mxCell id="7vA6uKXF7rg5VbFHULAT-102" value="" style="rounded=0;whiteSpace=wrap;html=1;" vertex="1" parent="1">
          <mxGeometry x="1310" y="330" width="260" height="410" as="geometry" />
        </mxCell>
        <mxCell id="7vA6uKXF7rg5VbFHULAT-80" value="" style="rounded=0;whiteSpace=wrap;html=1;" vertex="1" parent="1">
          <mxGeometry x="890" y="330" width="360" height="410" as="geometry" />
        </mxCell>
        <mxCell id="7vA6uKXF7rg5VbFHULAT-63" value="" style="rounded=0;whiteSpace=wrap;html=1;" vertex="1" parent="1">
          <mxGeometry x="570" y="330" width="220" height="400" as="geometry" />
        </mxCell>
        <mxCell id="7vA6uKXF7rg5VbFHULAT-49" value="" style="rounded=0;whiteSpace=wrap;html=1;" vertex="1" parent="1">
          <mxGeometry x="10" y="910" width="690" height="220" as="geometry" />
        </mxCell>
        <mxCell id="7vA6uKXF7rg5VbFHULAT-43" value="" style="rounded=0;whiteSpace=wrap;html=1;" vertex="1" parent="1">
          <mxGeometry x="10" y="770" width="530" height="110" as="geometry" />
        </mxCell>
        <mxCell id="7vA6uKXF7rg5VbFHULAT-41" value="" style="rounded=0;whiteSpace=wrap;html=1;" vertex="1" parent="1">
          <mxGeometry x="70" y="330" width="390" height="430" as="geometry" />
        </mxCell>
        <mxCell id="7vA6uKXF7rg5VbFHULAT-1" value="" style="text;whiteSpace=wrap;html=1;" vertex="1" parent="1">
          <mxGeometry x="10" y="10" width="60" height="50" as="geometry" />
        </mxCell>
        <mxCell id="7vA6uKXF7rg5VbFHULAT-9" value="" style="edgeStyle=orthogonalEdgeStyle;rounded=0;orthogonalLoop=1;jettySize=auto;html=1;" edge="1" parent="1" source="7vA6uKXF7rg5VbFHULAT-3" target="7vA6uKXF7rg5VbFHULAT-4">
          <mxGeometry relative="1" as="geometry" />
        </mxCell>
        <mxCell id="7vA6uKXF7rg5VbFHULAT-3" value="grafana" style="rounded=1;whiteSpace=wrap;html=1;" vertex="1" parent="1">
          <mxGeometry x="190" y="250" width="120" height="60" as="geometry" />
        </mxCell>
        <mxCell id="7vA6uKXF7rg5VbFHULAT-10" value="" style="edgeStyle=orthogonalEdgeStyle;rounded=0;orthogonalLoop=1;jettySize=auto;html=1;" edge="1" parent="1" source="7vA6uKXF7rg5VbFHULAT-4" target="7vA6uKXF7rg5VbFHULAT-5">
          <mxGeometry relative="1" as="geometry" />
        </mxCell>
        <mxCell id="7vA6uKXF7rg5VbFHULAT-14" value="冷热数据分离" style="edgeLabel;html=1;align=center;verticalAlign=middle;resizable=0;points=[];" vertex="1" connectable="0" parent="7vA6uKXF7rg5VbFHULAT-10">
          <mxGeometry x="-0.32" y="-3" relative="1" as="geometry">
            <mxPoint as="offset" />
          </mxGeometry>
        </mxCell>
        <mxCell id="7vA6uKXF7rg5VbFHULAT-4" value="vmauth(二开)" style="rounded=1;whiteSpace=wrap;html=1;" vertex="1" parent="1">
          <mxGeometry x="190" y="360" width="120" height="60" as="geometry" />
        </mxCell>
        <mxCell id="7vA6uKXF7rg5VbFHULAT-11" value="" style="edgeStyle=orthogonalEdgeStyle;rounded=0;orthogonalLoop=1;jettySize=auto;html=1;" edge="1" parent="1" source="7vA6uKXF7rg5VbFHULAT-5" target="7vA6uKXF7rg5VbFHULAT-6">
          <mxGeometry relative="1" as="geometry" />
        </mxCell>
        <mxCell id="7vA6uKXF7rg5VbFHULAT-15" value="query" style="edgeLabel;html=1;align=center;verticalAlign=middle;resizable=0;points=[];" vertex="1" connectable="0" parent="7vA6uKXF7rg5VbFHULAT-11">
          <mxGeometry x="-0.12" relative="1" as="geometry">
            <mxPoint as="offset" />
          </mxGeometry>
        </mxCell>
        <mxCell id="7vA6uKXF7rg5VbFHULAT-5" value="vmselect" style="rounded=1;whiteSpace=wrap;html=1;" vertex="1" parent="1">
          <mxGeometry x="190" y="470" width="120" height="60" as="geometry" />
        </mxCell>
        <mxCell id="7vA6uKXF7rg5VbFHULAT-13" value="" style="edgeStyle=orthogonalEdgeStyle;rounded=0;orthogonalLoop=1;jettySize=auto;html=1;" edge="1" parent="1" source="7vA6uKXF7rg5VbFHULAT-6" target="7vA6uKXF7rg5VbFHULAT-7">
          <mxGeometry relative="1" as="geometry" />
        </mxCell>
        <mxCell id="7vA6uKXF7rg5VbFHULAT-6" value="vmstorage(二开)" style="rounded=1;whiteSpace=wrap;html=1;" vertex="1" parent="1">
          <mxGeometry x="190" y="580" width="120" height="60" as="geometry" />
        </mxCell>
        <mxCell id="7vA6uKXF7rg5VbFHULAT-7" value="downsampling特性二开，提高数据存储效率" style="shape=document;whiteSpace=wrap;html=1;boundedLbl=1;" vertex="1" parent="1">
          <mxGeometry x="380" y="570" width="120" height="80" as="geometry" />
        </mxCell>
        <mxCell id="7vA6uKXF7rg5VbFHULAT-16" value="" style="edgeStyle=orthogonalEdgeStyle;rounded=0;orthogonalLoop=1;jettySize=auto;html=1;" edge="1" parent="1" source="7vA6uKXF7rg5VbFHULAT-8" target="7vA6uKXF7rg5VbFHULAT-6">
          <mxGeometry relative="1" as="geometry" />
        </mxCell>
        <mxCell id="7vA6uKXF7rg5VbFHULAT-17" value="dudeplicate,data replica(去重+多副本复制)" style="edgeLabel;html=1;align=center;verticalAlign=middle;resizable=0;points=[];" vertex="1" connectable="0" parent="7vA6uKXF7rg5VbFHULAT-16">
          <mxGeometry x="-0.2" y="3" relative="1" as="geometry">
            <mxPoint as="offset" />
          </mxGeometry>
        </mxCell>
        <mxCell id="7vA6uKXF7rg5VbFHULAT-8" value="vminsert" style="rounded=1;whiteSpace=wrap;html=1;" vertex="1" parent="1">
          <mxGeometry x="190" y="690" width="120" height="60" as="geometry" />
        </mxCell>
        <mxCell id="7vA6uKXF7rg5VbFHULAT-19" value="" style="edgeStyle=orthogonalEdgeStyle;rounded=0;orthogonalLoop=1;jettySize=auto;html=1;" edge="1" parent="1" source="7vA6uKXF7rg5VbFHULAT-18" target="7vA6uKXF7rg5VbFHULAT-8">
          <mxGeometry relative="1" as="geometry" />
        </mxCell>
        <mxCell id="7vA6uKXF7rg5VbFHULAT-20" value="stream aggr(流式聚合降低recording rule和查询的消耗)" style="edgeLabel;html=1;align=center;verticalAlign=middle;resizable=0;points=[];" vertex="1" connectable="0" parent="7vA6uKXF7rg5VbFHULAT-19">
          <mxGeometry y="1" relative="1" as="geometry">
            <mxPoint as="offset" />
          </mxGeometry>
        </mxCell>
        <mxCell id="7vA6uKXF7rg5VbFHULAT-26" style="edgeStyle=orthogonalEdgeStyle;rounded=0;orthogonalLoop=1;jettySize=auto;html=1;" edge="1" parent="1" source="7vA6uKXF7rg5VbFHULAT-18" target="7vA6uKXF7rg5VbFHULAT-24">
          <mxGeometry relative="1" as="geometry" />
        </mxCell>
        <mxCell id="7vA6uKXF7rg5VbFHULAT-52" value="pull" style="edgeLabel;html=1;align=center;verticalAlign=middle;resizable=0;points=[];" vertex="1" connectable="0" parent="7vA6uKXF7rg5VbFHULAT-26">
          <mxGeometry x="-0.0286" y="1" relative="1" as="geometry">
            <mxPoint as="offset" />
          </mxGeometry>
        </mxCell>
        <mxCell id="7vA6uKXF7rg5VbFHULAT-28" style="edgeStyle=orthogonalEdgeStyle;rounded=0;orthogonalLoop=1;jettySize=auto;html=1;entryX=0.5;entryY=0;entryDx=0;entryDy=0;" edge="1" parent="1" source="7vA6uKXF7rg5VbFHULAT-18" target="7vA6uKXF7rg5VbFHULAT-25">
          <mxGeometry relative="1" as="geometry" />
        </mxCell>
        <mxCell id="7vA6uKXF7rg5VbFHULAT-46" style="edgeStyle=orthogonalEdgeStyle;rounded=0;orthogonalLoop=1;jettySize=auto;html=1;entryX=0.5;entryY=0;entryDx=0;entryDy=0;" edge="1" parent="1" source="7vA6uKXF7rg5VbFHULAT-18" target="7vA6uKXF7rg5VbFHULAT-45">
          <mxGeometry relative="1" as="geometry" />
        </mxCell>
        <mxCell id="7vA6uKXF7rg5VbFHULAT-51" value="pull" style="edgeLabel;html=1;align=center;verticalAlign=middle;resizable=0;points=[];" vertex="1" connectable="0" parent="7vA6uKXF7rg5VbFHULAT-46">
          <mxGeometry x="-0.6486" y="-1" relative="1" as="geometry">
            <mxPoint as="offset" />
          </mxGeometry>
        </mxCell>
        <mxCell id="7vA6uKXF7rg5VbFHULAT-59" style="edgeStyle=orthogonalEdgeStyle;rounded=0;orthogonalLoop=1;jettySize=auto;html=1;entryX=0;entryY=0.5;entryDx=0;entryDy=0;" edge="1" parent="1" source="7vA6uKXF7rg5VbFHULAT-18" target="7vA6uKXF7rg5VbFHULAT-47">
          <mxGeometry relative="1" as="geometry" />
        </mxCell>
        <mxCell id="7vA6uKXF7rg5VbFHULAT-61" style="edgeStyle=orthogonalEdgeStyle;rounded=0;orthogonalLoop=1;jettySize=auto;html=1;entryX=0;entryY=0.5;entryDx=0;entryDy=0;" edge="1" parent="1" source="7vA6uKXF7rg5VbFHULAT-18" target="7vA6uKXF7rg5VbFHULAT-48">
          <mxGeometry relative="1" as="geometry">
            <Array as="points">
              <mxPoint x="500" y="830" />
              <mxPoint x="500" y="1070" />
            </Array>
          </mxGeometry>
        </mxCell>
        <mxCell id="7vA6uKXF7rg5VbFHULAT-18" value="vmagent(二开)" style="rounded=1;whiteSpace=wrap;html=1;" vertex="1" parent="1">
          <mxGeometry x="190" y="800" width="120" height="60" as="geometry" />
        </mxCell>
        <mxCell id="7vA6uKXF7rg5VbFHULAT-22" value="" style="edgeStyle=orthogonalEdgeStyle;rounded=0;orthogonalLoop=1;jettySize=auto;html=1;" edge="1" parent="1" source="7vA6uKXF7rg5VbFHULAT-21" target="7vA6uKXF7rg5VbFHULAT-18">
          <mxGeometry relative="1" as="geometry" />
        </mxCell>
        <mxCell id="7vA6uKXF7rg5VbFHULAT-21" value="metric-gateway" style="rounded=1;whiteSpace=wrap;html=1;" vertex="1" parent="1">
          <mxGeometry x="40" y="800" width="120" height="60" as="geometry" />
        </mxCell>
        <mxCell id="7vA6uKXF7rg5VbFHULAT-29" value="" style="edgeStyle=orthogonalEdgeStyle;rounded=0;orthogonalLoop=1;jettySize=auto;html=1;" edge="1" parent="1" source="7vA6uKXF7rg5VbFHULAT-23" target="7vA6uKXF7rg5VbFHULAT-21">
          <mxGeometry relative="1" as="geometry" />
        </mxCell>
        <mxCell id="7vA6uKXF7rg5VbFHULAT-30" value="push" style="edgeLabel;html=1;align=center;verticalAlign=middle;resizable=0;points=[];" vertex="1" connectable="0" parent="7vA6uKXF7rg5VbFHULAT-29">
          <mxGeometry y="-3" relative="1" as="geometry">
            <mxPoint as="offset" />
          </mxGeometry>
        </mxCell>
        <mxCell id="7vA6uKXF7rg5VbFHULAT-23" value="kugraf" style="rounded=1;whiteSpace=wrap;html=1;" vertex="1" parent="1">
          <mxGeometry x="40" y="930" width="120" height="60" as="geometry" />
        </mxCell>
        <mxCell id="7vA6uKXF7rg5VbFHULAT-24" value="node-exporter" style="rounded=1;whiteSpace=wrap;html=1;" vertex="1" parent="1">
          <mxGeometry x="190" y="930" width="120" height="60" as="geometry" />
        </mxCell>
        <mxCell id="7vA6uKXF7rg5VbFHULAT-25" value="kube-state-metrics" style="rounded=1;whiteSpace=wrap;html=1;" vertex="1" parent="1">
          <mxGeometry x="360" y="930" width="120" height="60" as="geometry" />
        </mxCell>
        <mxCell id="7vA6uKXF7rg5VbFHULAT-31" value="" style="rounded=1;whiteSpace=wrap;html=1;" vertex="1" parent="1">
          <mxGeometry x="190" y="30" width="680" height="150" as="geometry" />
        </mxCell>
        <mxCell id="7vA6uKXF7rg5VbFHULAT-67" style="edgeStyle=orthogonalEdgeStyle;rounded=0;orthogonalLoop=1;jettySize=auto;html=1;" edge="1" parent="1" source="7vA6uKXF7rg5VbFHULAT-33" target="7vA6uKXF7rg5VbFHULAT-3">
          <mxGeometry relative="1" as="geometry" />
        </mxCell>
        <mxCell id="7vA6uKXF7rg5VbFHULAT-33" value="topology graph" style="rounded=1;whiteSpace=wrap;html=1;" vertex="1" parent="1">
          <mxGeometry x="230" y="75" width="120" height="60" as="geometry" />
        </mxCell>
        <mxCell id="7vA6uKXF7rg5VbFHULAT-68" style="edgeStyle=orthogonalEdgeStyle;rounded=0;orthogonalLoop=1;jettySize=auto;html=1;entryX=1;entryY=0.5;entryDx=0;entryDy=0;" edge="1" parent="1" source="7vA6uKXF7rg5VbFHULAT-34" target="7vA6uKXF7rg5VbFHULAT-3">
          <mxGeometry relative="1" as="geometry">
            <Array as="points">
              <mxPoint x="440" y="280" />
            </Array>
          </mxGeometry>
        </mxCell>
        <mxCell id="7vA6uKXF7rg5VbFHULAT-34" value="metrics" style="rounded=1;whiteSpace=wrap;html=1;" vertex="1" parent="1">
          <mxGeometry x="390" y="75" width="120" height="60" as="geometry" />
        </mxCell>
        <mxCell id="7vA6uKXF7rg5VbFHULAT-83" style="edgeStyle=orthogonalEdgeStyle;rounded=0;orthogonalLoop=1;jettySize=auto;html=1;" edge="1" parent="1" source="7vA6uKXF7rg5VbFHULAT-35" target="7vA6uKXF7rg5VbFHULAT-70">
          <mxGeometry relative="1" as="geometry">
            <Array as="points">
              <mxPoint x="600" y="230" />
              <mxPoint x="1000" y="230" />
            </Array>
          </mxGeometry>
        </mxCell>
        <mxCell id="7vA6uKXF7rg5VbFHULAT-35" value="trace" style="rounded=1;whiteSpace=wrap;html=1;" vertex="1" parent="1">
          <mxGeometry x="540" y="75" width="120" height="60" as="geometry" />
        </mxCell>
        <mxCell id="7vA6uKXF7rg5VbFHULAT-36" value="log" style="rounded=1;whiteSpace=wrap;html=1;" vertex="1" parent="1">
          <mxGeometry x="707" y="75" width="120" height="60" as="geometry" />
        </mxCell>
        <mxCell id="7vA6uKXF7rg5VbFHULAT-37" value="智玉-可观测" style="text;html=1;align=center;verticalAlign=middle;whiteSpace=wrap;rounded=0;" vertex="1" parent="1">
          <mxGeometry x="470" y="40" width="100" height="30" as="geometry" />
        </mxCell>
        <mxCell id="7vA6uKXF7rg5VbFHULAT-42" value="TSDB-存储层" style="text;html=1;align=center;verticalAlign=middle;whiteSpace=wrap;rounded=0;" vertex="1" parent="1">
          <mxGeometry x="80" y="340" width="90" height="30" as="geometry" />
        </mxCell>
        <mxCell id="7vA6uKXF7rg5VbFHULAT-44" value="指标采集层" style="text;html=1;align=center;verticalAlign=middle;whiteSpace=wrap;rounded=0;" vertex="1" parent="1">
          <mxGeometry y="770" width="90" height="30" as="geometry" />
        </mxCell>
        <mxCell id="7vA6uKXF7rg5VbFHULAT-73" style="edgeStyle=orthogonalEdgeStyle;rounded=0;orthogonalLoop=1;jettySize=auto;html=1;" edge="1" parent="1" source="7vA6uKXF7rg5VbFHULAT-45" target="7vA6uKXF7rg5VbFHULAT-69">
          <mxGeometry relative="1" as="geometry" />
        </mxCell>
        <mxCell id="7vA6uKXF7rg5VbFHULAT-74" value="trace" style="edgeLabel;html=1;align=center;verticalAlign=middle;resizable=0;points=[];" vertex="1" connectable="0" parent="7vA6uKXF7rg5VbFHULAT-73">
          <mxGeometry x="-0.2596" y="3" relative="1" as="geometry">
            <mxPoint as="offset" />
          </mxGeometry>
        </mxCell>
        <mxCell id="7vA6uKXF7rg5VbFHULAT-45" value="istio-proxy" style="rounded=1;whiteSpace=wrap;html=1;" vertex="1" parent="1">
          <mxGeometry x="520" y="930" width="120" height="60" as="geometry" />
        </mxCell>
        <mxCell id="7vA6uKXF7rg5VbFHULAT-47" value="kindling-promethus-exporter(ebpf-based)" style="rounded=1;whiteSpace=wrap;html=1;" vertex="1" parent="1">
          <mxGeometry x="360" y="1040" width="120" height="60" as="geometry" />
        </mxCell>
        <mxCell id="7vA6uKXF7rg5VbFHULAT-91" style="edgeStyle=orthogonalEdgeStyle;rounded=0;orthogonalLoop=1;jettySize=auto;html=1;entryX=0;entryY=0.5;entryDx=0;entryDy=0;" edge="1" parent="1" source="7vA6uKXF7rg5VbFHULAT-48" target="7vA6uKXF7rg5VbFHULAT-90">
          <mxGeometry relative="1" as="geometry" />
        </mxCell>
        <mxCell id="7vA6uKXF7rg5VbFHULAT-48" value="天幕/酷狗RPC" style="rounded=1;whiteSpace=wrap;html=1;" vertex="1" parent="1">
          <mxGeometry x="520" y="1040" width="120" height="60" as="geometry" />
        </mxCell>
        <mxCell id="7vA6uKXF7rg5VbFHULAT-50" value="promethus-exporter" style="text;html=1;align=center;verticalAlign=middle;whiteSpace=wrap;rounded=0;" vertex="1" parent="1">
          <mxGeometry x="20" y="1020" width="120" height="30" as="geometry" />
        </mxCell>
        <mxCell id="7vA6uKXF7rg5VbFHULAT-53" value="交换机级别-网络拓补" style="rounded=1;whiteSpace=wrap;html=1;" vertex="1" parent="1">
          <mxGeometry x="620" y="350" width="120" height="60" as="geometry" />
        </mxCell>
        <mxCell id="7vA6uKXF7rg5VbFHULAT-54" value="自定义指标登记" style="rounded=1;whiteSpace=wrap;html=1;" vertex="1" parent="1">
          <mxGeometry x="620" y="450" width="120" height="60" as="geometry" />
        </mxCell>
        <mxCell id="7vA6uKXF7rg5VbFHULAT-55" value="stream aggr(流式聚合)" style="rounded=1;whiteSpace=wrap;html=1;" vertex="1" parent="1">
          <mxGeometry x="620" y="550" width="120" height="60" as="geometry" />
        </mxCell>
        <mxCell id="7vA6uKXF7rg5VbFHULAT-62" value="scrape config(抓取配置下发)" style="rounded=1;whiteSpace=wrap;html=1;" vertex="1" parent="1">
          <mxGeometry x="620" y="650" width="120" height="60" as="geometry" />
        </mxCell>
        <mxCell id="7vA6uKXF7rg5VbFHULAT-64" value="配置中心-CMDB" style="text;html=1;align=center;verticalAlign=middle;whiteSpace=wrap;rounded=0;" vertex="1" parent="1">
          <mxGeometry x="570" y="330" width="100" height="30" as="geometry" />
        </mxCell>
        <mxCell id="7vA6uKXF7rg5VbFHULAT-65" style="edgeStyle=orthogonalEdgeStyle;rounded=0;orthogonalLoop=1;jettySize=auto;html=1;entryX=0;entryY=0.42;entryDx=0;entryDy=0;entryPerimeter=0;" edge="1" parent="1" source="7vA6uKXF7rg5VbFHULAT-18" target="7vA6uKXF7rg5VbFHULAT-63">
          <mxGeometry relative="1" as="geometry">
            <Array as="points">
              <mxPoint x="440" y="820" />
              <mxPoint x="440" y="498" />
            </Array>
          </mxGeometry>
        </mxCell>
        <mxCell id="7vA6uKXF7rg5VbFHULAT-66" value="load" style="edgeLabel;html=1;align=center;verticalAlign=middle;resizable=0;points=[];" vertex="1" connectable="0" parent="7vA6uKXF7rg5VbFHULAT-65">
          <mxGeometry x="-0.4502" y="-1" relative="1" as="geometry">
            <mxPoint as="offset" />
          </mxGeometry>
        </mxCell>
        <mxCell id="7vA6uKXF7rg5VbFHULAT-96" style="edgeStyle=orthogonalEdgeStyle;rounded=0;orthogonalLoop=1;jettySize=auto;html=1;entryX=0.5;entryY=1;entryDx=0;entryDy=0;" edge="1" parent="1" source="7vA6uKXF7rg5VbFHULAT-69" target="7vA6uKXF7rg5VbFHULAT-70">
          <mxGeometry relative="1" as="geometry" />
        </mxCell>
        <mxCell id="7vA6uKXF7rg5VbFHULAT-100" style="edgeStyle=orthogonalEdgeStyle;rounded=0;orthogonalLoop=1;jettySize=auto;html=1;entryX=0.5;entryY=1;entryDx=0;entryDy=0;" edge="1" parent="1" source="7vA6uKXF7rg5VbFHULAT-69" target="7vA6uKXF7rg5VbFHULAT-98">
          <mxGeometry relative="1" as="geometry">
            <Array as="points">
              <mxPoint x="1000" y="770" />
              <mxPoint x="1410" y="770" />
            </Array>
          </mxGeometry>
        </mxCell>
        <mxCell id="7vA6uKXF7rg5VbFHULAT-69" value="otel-collector" style="rounded=1;whiteSpace=wrap;html=1;" vertex="1" parent="1">
          <mxGeometry x="940" y="790" width="120" height="60" as="geometry" />
        </mxCell>
        <mxCell id="7vA6uKXF7rg5VbFHULAT-84" value="" style="edgeStyle=orthogonalEdgeStyle;rounded=0;orthogonalLoop=1;jettySize=auto;html=1;" edge="1" parent="1" source="7vA6uKXF7rg5VbFHULAT-70" target="7vA6uKXF7rg5VbFHULAT-71">
          <mxGeometry relative="1" as="geometry" />
        </mxCell>
        <mxCell id="7vA6uKXF7rg5VbFHULAT-70" value="jaeger" style="rounded=1;whiteSpace=wrap;html=1;" vertex="1" parent="1">
          <mxGeometry x="940" y="380" width="120" height="60" as="geometry" />
        </mxCell>
        <mxCell id="7vA6uKXF7rg5VbFHULAT-79" value="" style="edgeStyle=orthogonalEdgeStyle;rounded=0;orthogonalLoop=1;jettySize=auto;html=1;" edge="1" parent="1" source="7vA6uKXF7rg5VbFHULAT-71" target="7vA6uKXF7rg5VbFHULAT-72">
          <mxGeometry relative="1" as="geometry" />
        </mxCell>
        <mxCell id="7vA6uKXF7rg5VbFHULAT-85" value="冷数据转存" style="edgeLabel;html=1;align=center;verticalAlign=middle;resizable=0;points=[];" vertex="1" connectable="0" parent="7vA6uKXF7rg5VbFHULAT-79">
          <mxGeometry x="-0.0667" y="-4" relative="1" as="geometry">
            <mxPoint as="offset" />
          </mxGeometry>
        </mxCell>
        <mxCell id="7vA6uKXF7rg5VbFHULAT-71" value="es" style="rounded=1;whiteSpace=wrap;html=1;" vertex="1" parent="1">
          <mxGeometry x="1100" y="460" width="120" height="60" as="geometry" />
        </mxCell>
        <mxCell id="7vA6uKXF7rg5VbFHULAT-72" value="cos" style="rounded=1;whiteSpace=wrap;html=1;" vertex="1" parent="1">
          <mxGeometry x="1100" y="600" width="120" height="60" as="geometry" />
        </mxCell>
        <mxCell id="7vA6uKXF7rg5VbFHULAT-81" value="trace storage" style="text;html=1;align=center;verticalAlign=middle;whiteSpace=wrap;rounded=0;" vertex="1" parent="1">
          <mxGeometry x="900" y="340" width="110" height="30" as="geometry" />
        </mxCell>
        <mxCell id="7vA6uKXF7rg5VbFHULAT-97" style="edgeStyle=orthogonalEdgeStyle;rounded=0;orthogonalLoop=1;jettySize=auto;html=1;entryX=0.75;entryY=1;entryDx=0;entryDy=0;" edge="1" parent="1" source="7vA6uKXF7rg5VbFHULAT-86" target="7vA6uKXF7rg5VbFHULAT-70">
          <mxGeometry relative="1" as="geometry">
            <Array as="points">
              <mxPoint x="1070" y="820" />
              <mxPoint x="1070" y="470" />
              <mxPoint x="1030" y="470" />
            </Array>
          </mxGeometry>
        </mxCell>
        <mxCell id="7vA6uKXF7rg5VbFHULAT-86" value="kafka" style="rounded=1;whiteSpace=wrap;html=1;" vertex="1" parent="1">
          <mxGeometry x="1110" y="790" width="120" height="60" as="geometry" />
        </mxCell>
        <mxCell id="7vA6uKXF7rg5VbFHULAT-92" style="edgeStyle=orthogonalEdgeStyle;rounded=0;orthogonalLoop=1;jettySize=auto;html=1;" edge="1" parent="1" source="7vA6uKXF7rg5VbFHULAT-90" target="7vA6uKXF7rg5VbFHULAT-86">
          <mxGeometry relative="1" as="geometry" />
        </mxCell>
        <mxCell id="7vA6uKXF7rg5VbFHULAT-90" value="jaeger collector" style="rounded=1;whiteSpace=wrap;html=1;" vertex="1" parent="1">
          <mxGeometry x="940" y="1040" width="120" height="60" as="geometry" />
        </mxCell>
        <mxCell id="7vA6uKXF7rg5VbFHULAT-101" style="edgeStyle=orthogonalEdgeStyle;rounded=0;orthogonalLoop=1;jettySize=auto;html=1;entryX=0.5;entryY=1;entryDx=0;entryDy=0;" edge="1" parent="1" source="7vA6uKXF7rg5VbFHULAT-98" target="7vA6uKXF7rg5VbFHULAT-36">
          <mxGeometry relative="1" as="geometry">
            <Array as="points">
              <mxPoint x="1410" y="210" />
              <mxPoint x="767" y="210" />
            </Array>
          </mxGeometry>
        </mxCell>
        <mxCell id="7vA6uKXF7rg5VbFHULAT-98" value="CLS/ES" style="rounded=1;whiteSpace=wrap;html=1;" vertex="1" parent="1">
          <mxGeometry x="1350" y="450" width="120" height="60" as="geometry" />
        </mxCell>
        <mxCell id="7vA6uKXF7rg5VbFHULAT-103" value="日志存储" style="text;html=1;align=center;verticalAlign=middle;whiteSpace=wrap;rounded=0;" vertex="1" parent="1">
          <mxGeometry x="1320" y="340" width="60" height="30" as="geometry" />
        </mxCell>
      </root>
    </mxGraphModel>
  </diagram>
</mxfile>
